<svg width="18" height="22" viewBox="0 0 18 22" fill="none" xmlns="http://www.w3.org/2000/svg">
<path d="M2.31322 11.9153L1.568 11.8307L1.568 11.8307L2.31322 11.9153ZM2.7604 7.97519L3.50562 8.05977L2.7604 7.97519ZM1.44772 13.8721L0.876617 13.386H0.876617L1.44772 13.8721ZM16.4319 11.8307C16.3852 11.4191 16.0137 11.1233 15.6021 11.17C15.1905 11.2168 14.8947 11.5883 14.9414 11.9998L16.4319 11.8307ZM16.5522 13.8721L15.981 14.3583L16.5522 13.8721ZM6.72999 3.37366L6.97294 4.08322C7.27623 3.97938 7.47999 3.69424 7.47999 3.37366H6.72999ZM10.1539 2.28059C10.4237 2.59487 10.8972 2.6309 11.2115 2.36107C11.5257 2.09125 11.5618 1.61774 11.2919 1.30347L10.1539 2.28059ZM12.7022 19.2632C12.8476 18.8753 12.651 18.4431 12.2631 18.2977C11.8753 18.1523 11.443 18.3489 11.2976 18.7368L12.7022 19.2632ZM6.70224 18.7368C6.55687 18.3489 6.1246 18.1523 5.73674 18.2977C5.34887 18.4431 5.15228 18.8753 5.29764 19.2632L6.70224 18.7368ZM14.7771 16.25H3.22275V17.75H14.7771V16.25ZM3.05843 11.9998L3.50562 8.05977L2.01519 7.89061L1.568 11.8307L3.05843 11.9998ZM2.01883 14.3583C2.59615 13.6801 2.96022 12.8652 3.05843 11.9998L1.568 11.8307C1.50513 12.3846 1.27061 12.9231 0.876617 13.386L2.01883 14.3583ZM14.9414 11.9998C15.0397 12.8652 15.4037 13.6801 15.981 14.3583L17.1233 13.386C16.7293 12.9231 16.4947 12.3846 16.4319 11.8307L14.9414 11.9998ZM3.22275 16.25C2.56771 16.25 2.10436 15.926 1.8905 15.5492C1.68403 15.1854 1.68708 14.748 2.01883 14.3583L0.876617 13.386C0.111345 14.285 0.087712 15.4116 0.585924 16.2895C1.07673 17.1544 2.04941 17.75 3.22275 17.75V16.25ZM14.7771 17.75C15.9505 17.75 16.9231 17.1544 17.414 16.2895C17.9122 15.4116 17.8885 14.285 17.1233 13.386L15.981 14.3583C16.3128 14.748 16.3158 15.1854 16.1094 15.5492C15.8955 15.926 15.4322 16.25 14.7771 16.25V17.75ZM7.47999 3.37366V3.26995H5.97999V3.37366H7.47999ZM3.50562 8.05977C3.70864 6.27101 5.05581 4.73962 6.97294 4.08322L6.48705 2.6641C4.11938 3.47476 2.29443 5.43026 2.01519 7.89061L3.50562 8.05977ZM8.99994 0.25C7.33207 0.25 5.97999 1.60208 5.97999 3.26995H7.47999C7.47999 2.4305 8.1605 1.75 8.99994 1.75V0.25ZM8.99994 1.75C9.46125 1.75 9.87397 1.95459 10.1539 2.28059L11.2919 1.30347C10.7392 0.659712 9.91703 0.25 8.99994 0.25V1.75ZM11.2976 18.7368C10.9749 19.5979 10.0845 20.25 8.99994 20.25V21.75C10.6854 21.75 12.1516 20.7325 12.7022 19.2632L11.2976 18.7368ZM8.99994 20.25C7.91536 20.25 7.02495 19.5979 6.70224 18.7368L5.29764 19.2632C5.84829 20.7325 7.31446 21.75 8.99994 21.75V20.25Z" fill="#1B1E28"/>
</svg>
