<?xml version="1.0" encoding="UTF-8"?>
<svg version="1.1" xmlns="http://www.w3.org/2000/svg" width="219" height="149">
<path d="M0 0 C7.3073058 4.68874031 10.69765072 10.71366458 13 19 C14.35513075 27.11879217 12.04023954 34.11661524 7.75 41.0078125 C3.90229339 46.05792742 -0.93322896 49.19033242 -7 51 C-16.23285054 52.22243339 -24.40131097 51.69556909 -32 46 C-37.96876002 40.68814336 -41.44153244 35.10299737 -42.3125 27.14453125 C-42.68218559 18.02947099 -40.43673512 11.78973179 -34.8125 4.6875 C-26.16552919 -4.45201978 -10.96390531 -6.61163921 0 0 Z M-21 0 C-20.01 2.31 -19.02 4.62 -18 7 C-14.35245328 5.21924544 -14.35245328 5.21924544 -11 3 C-9.95489639 0.37897003 -9.95489639 0.37897003 -10 -2 C-11.45792884 -2.05399736 -12.91642712 -2.09279177 -14.375 -2.125 C-15.59316406 -2.15980469 -15.59316406 -2.15980469 -16.8359375 -2.1953125 C-19.21342243 -2.21370051 -19.21342243 -2.21370051 -21 0 Z M-25 3 C-24.01 4.485 -24.01 4.485 -23 6 C-23 5.01 -23 4.02 -23 3 C-23.66 3 -24.32 3 -25 3 Z M-33.5 6.1875 C-36.65297315 9.7345948 -38.74358738 12.241742 -39.4375 17 C-38.89117186 20.74625013 -37.65396472 22.34603528 -35 25 C-34.01 25.33 -33.02 25.66 -32 26 C-32 25.34 -32 24.68 -32 24 C-32.66 23.67 -33.32 23.34 -34 23 C-34 22.34 -34 21.68 -34 21 C-33.0925 20.5875 -32.185 20.175 -31.25 19.75 C-28.18391363 18.09903041 -26.2229451 16.65043455 -24 14 C-24 13.34 -24 12.68 -24 12 C-23.34 12 -22.68 12 -22 12 C-22 11.01 -22 10.02 -22 9 C-23.32 8.34 -24.64 7.68 -26 7 C-26.33 7.99 -26.66 8.98 -27 10 C-27.99 9.67 -28.98 9.34 -30 9 C-29.34 7.35 -28.68 5.7 -28 4 C-31.17736508 3.6707477 -31.17736508 3.6707477 -33.5 6.1875 Z M-1.625 5.375 C-3.21531408 6.89968321 -3.21531408 6.89968321 -3 9 C-2.34 9 -1.68 9 -1 9 C-1 9.66 -1 10.32 -1 11 C-2.98 11.99 -2.98 11.99 -5 13 C-5 13.66 -5 14.32 -5 15 C-4.36191406 15.19335938 -3.72382812 15.38671875 -3.06640625 15.5859375 C-2.24011719 15.84632812 -1.41382813 16.10671875 -0.5625 16.375 C0.26121094 16.63023438 1.08492187 16.88546875 1.93359375 17.1484375 C4 18 4 18 5 20 C2.69 20 0.38 20 -2 20 C-2 19.34 -2 18.68 -2 18 C-5.03153686 18.32773371 -6.61573103 18.64134897 -8.875 20.75 C-10.30769581 23.61539161 -9.97242524 25.00168883 -9 28 C-7.87465895 29.35618499 -7.87465895 29.35618499 -4.9375 29.0625 C-3.4834375 29.0315625 -3.4834375 29.0315625 -2 29 C-1.95101562 29.84304687 -1.90203125 30.68609375 -1.8515625 31.5546875 C-1.77679688 32.65039062 -1.70203125 33.74609375 -1.625 34.875 C-1.55539063 35.96554688 -1.48578125 37.05609375 -1.4140625 38.1796875 C-1.26746509 41.13046474 -1.26746509 41.13046474 1 43 C4.92219768 38.76815514 6.67467669 35.7430677 8 30 C8.33 29.34 8.66 28.68 9 28 C8.34 28 7.68 28 7 28 C7 27.34 7 26.68 7 26 C8.32 25.34 9.64 24.68 11 24 C10.74484029 17.54445945 10.32759267 12.96400336 6 8 C5.01 7.67 4.02 7.34 3 7 C2.67 6.01 2.34 5.02 2 4 C-0.10031679 3.78468592 -0.10031679 3.78468592 -1.625 5.375 Z M-14 7 C-14.33 7.66 -14.66 8.32 -15 9 C-14.34 9 -13.68 9 -13 9 C-13.33 8.34 -13.66 7.68 -14 7 Z M-28 27 C-29.28776153 29.77825456 -29.28776153 29.77825456 -30 33 C-29.30390625 33.928125 -29.30390625 33.928125 -28.59375 34.875 C-26.66507854 37.44656195 -26.52140657 39.07462007 -26.3125 42.25 C-26.24675781 43.14203125 -26.18101563 44.0340625 -26.11328125 44.953125 C-26.07589844 45.62859375 -26.03851563 46.3040625 -26 47 C-22.41871228 43.61767271 -19.39395697 40.32753759 -17 36 C-16.82387805 33.78671071 -16.82387805 33.78671071 -18 32 C-20.61727174 29.5603398 -20.61727174 29.5603398 -24 29 C-24 28.34 -24 27.68 -24 27 C-25.32 27 -26.64 27 -28 27 Z " fill="#FB851E" transform="translate(123,31)"/>
<path d="M0 0 C7.3073058 4.68874031 10.69765072 10.71366458 13 19 C14.35147763 27.09690577 12.12634214 34.36616137 7.57421875 41.11328125 C4.78730919 44.59151721 2.43557941 46.82587604 -2 48 C-2 47.01 -2 46.02 -2 45 C-1.01 44.67 -0.02 44.34 1 44 C2.10836423 42.11683841 2.10836423 42.11683841 3 40 C3.66 39.01 4.32 38.02 5 37 C6.27741415 33.0967901 7 30.12760017 7 26 C7.99 25.34 8.98 24.68 10 24 C9.70074597 16.42887315 8.56248815 11.81695158 3.25 6.125 C2.8375 5.75375 2.425 5.3825 2 5 C-1.12197478 6.3089572 -1.12197478 6.3089572 -3 9 C-2.34 9 -1.68 9 -1 9 C-1 11 -1 11 -3 13.125 C-3.66 13.74375 -4.32 14.3625 -5 15 C-3.741875 15.0825 -2.48375 15.165 -1.1875 15.25 C2.72231986 15.71364236 2.72231986 15.71364236 5 18.0625 C5.33 18.701875 5.66 19.34125 6 20 C2.71303767 20.79953138 1.28976808 21.09658936 -2 20 C-2 19.34 -2 18.68 -2 18 C-5.37503669 19.1858237 -7.64722731 20.27573689 -10 23 C-9.690625 22.2575 -9.38125 21.515 -9.0625 20.75 C-7.10983382 15.94606876 -7.10983382 15.94606876 -8 11 C-7.67 10.34 -7.34 9.68 -7 9 C-9.67431931 8.92359088 -12.00035737 9.00007658 -14.625 9.5625 C-17 10 -17 10 -20 9 C-20 10.98 -20 12.96 -20 15 C-20.99 15 -21.98 15 -23 15 C-25.79407345 17.37072898 -27.55873214 19.63704165 -29 23 C-28.01 23 -27.02 23 -26 23 C-26 23.66 -26 24.32 -26 25 C-27.32 24.67 -28.64 24.34 -30 24 C-29.67 24.66 -29.34 25.32 -29 26 C-27.02 26 -25.04 26 -23 26 C-22.67 26.99 -22.34 27.98 -22 29 C-22.66 29 -23.32 29 -24 29 C-24 28.34 -24 27.68 -24 27 C-27.41124018 28.41154766 -28.8456223 30.06221223 -31 33 C-31.66 33 -32.32 33 -33 33 C-33.103125 32.21625 -33.20625 31.4325 -33.3125 30.625 C-33.77595022 27.66954819 -33.77595022 27.66954819 -37 26 C-37 25.01 -37 24.02 -37 23 C-38.32 23 -39.64 23 -41 23 C-40.67 23.66 -40.34 24.32 -40 25 C-39.86584528 27.6723621 -39.95681459 30.32250488 -40 33 C-39.34 33 -38.68 33 -38 33 C-37.34 35.31 -36.68 37.62 -36 40 C-35.01 40 -34.02 40 -33 40 C-31.68 42.31 -30.36 44.62 -29 47 C-34.6428259 44.48936904 -38.39831762 39.93492113 -40.875 34.3125 C-43.08342083 27.48887635 -43.11203811 19.92481709 -40.4375 13.25 C-36.83505593 6.30962699 -32.09189855 0.48585561 -24.65625 -2.37890625 C-16.65276685 -4.25030893 -7.20788434 -4.34662006 0 0 Z M-21 0 C-20.01 2.31 -19.02 4.62 -18 7 C-14.35245328 5.21924544 -14.35245328 5.21924544 -11 3 C-9.95489639 0.37897003 -9.95489639 0.37897003 -10 -2 C-11.45792884 -2.05399736 -12.91642712 -2.09279177 -14.375 -2.125 C-15.59316406 -2.15980469 -15.59316406 -2.15980469 -16.8359375 -2.1953125 C-19.21342243 -2.21370051 -19.21342243 -2.21370051 -21 0 Z M-25 3 C-24.01 4.485 -24.01 4.485 -23 6 C-23 5.01 -23 4.02 -23 3 C-23.66 3 -24.32 3 -25 3 Z M-33.5 6.1875 C-36.65297315 9.7345948 -38.74358738 12.241742 -39.4375 17 C-38.89117186 20.74625013 -37.65396472 22.34603528 -35 25 C-34.01 25.33 -33.02 25.66 -32 26 C-32 25.34 -32 24.68 -32 24 C-32.66 23.67 -33.32 23.34 -34 23 C-34 22.34 -34 21.68 -34 21 C-33.0925 20.5875 -32.185 20.175 -31.25 19.75 C-28.18391363 18.09903041 -26.2229451 16.65043455 -24 14 C-24 13.34 -24 12.68 -24 12 C-23.34 12 -22.68 12 -22 12 C-22 11.01 -22 10.02 -22 9 C-23.32 8.34 -24.64 7.68 -26 7 C-26.33 7.99 -26.66 8.98 -27 10 C-27.99 9.67 -28.98 9.34 -30 9 C-29.34 7.35 -28.68 5.7 -28 4 C-31.17736508 3.6707477 -31.17736508 3.6707477 -33.5 6.1875 Z M-14 7 C-14.33 7.66 -14.66 8.32 -15 9 C-14.34 9 -13.68 9 -13 9 C-13.33 8.34 -13.66 7.68 -14 7 Z M-36 28 C-35.34 28.33 -34.68 28.66 -34 29 C-34.99 29 -35.98 29 -37 29 C-36.67 28.67 -36.34 28.34 -36 28 Z " fill="#F68A2B" transform="translate(123,31)"/>
<path d="M0 0 C1.67542976 0.28604898 3.34385343 0.61781233 5 1 C5.55353075 15.78132118 5.55353075 15.78132118 2 22 C-0.25 22.375 -0.25 22.375 -3 22 C-5.35022689 19.06221639 -6.81100979 16.56697062 -8 13 C-8.27714844 13.56589844 -8.55429687 14.13179687 -8.83984375 14.71484375 C-9.38318359 15.81505859 -9.38318359 15.81505859 -9.9375 16.9375 C-10.29714844 17.66839844 -10.65679687 18.39929688 -11.02734375 19.15234375 C-12 21 -12 21 -13 22 C-15.4375 22.25 -15.4375 22.25 -18 22 C-21.46558063 16.80162905 -21.69026512 10.14218963 -21 4 C-20.34 3.01 -19.68 2.02 -19 1 C-17.68 1 -16.36 1 -15 1 C-14.67 3.97 -14.34 6.94 -14 10 C-13.5875 9.030625 -13.175 8.06125 -12.75 7.0625 C-11 4 -11 4 -9.0625 2.875 C-7 3 -7 3 -4.8125 4.75 C-3 7 -3 7 -2 10 C-1.90912109 9.04287109 -1.90912109 9.04287109 -1.81640625 8.06640625 C-1.73261719 7.24011719 -1.64882813 6.41382812 -1.5625 5.5625 C-1.48128906 4.73878906 -1.40007813 3.91507812 -1.31640625 3.06640625 C-1 1 -1 1 0 0 Z " fill="#020202" transform="translate(28,108)"/>
<path d="M0 0 C1.65 0.33 3.3 0.66 5 1 C6.68521824 6.89826384 7.19296396 12.33971694 7.1875 18.4375 C7.18814453 19.14777344 7.18878906 19.85804687 7.18945312 20.58984375 C7.13508795 25.7298241 7.13508795 25.7298241 6 28 C5.195625 27.814375 4.39125 27.62875 3.5625 27.4375 C2.716875 27.293125 1.87125 27.14875 1 27 C0.67 27.33 0.34 27.66 0 28 C-7.45864662 28.36090226 -7.45864662 28.36090226 -11 26 C-12.05885037 22.8234489 -12.20049266 20.40011989 -12.25 17.0625 C-12.28867188 15.50208984 -12.28867188 15.50208984 -12.328125 13.91015625 C-11.95585847 10.6085067 -11.43863689 9.24568979 -9 7 C-6.73828125 6.609375 -6.73828125 6.609375 -4.3125 6.75 C-3.50425781 6.78609375 -2.69601563 6.8221875 -1.86328125 6.859375 C-0.94095703 6.92898437 -0.94095703 6.92898437 0 7 C0 4.69 0 2.38 0 0 Z M-6 13 C-6.22918242 17.01657143 -6.22918242 17.01657143 -6 21 C-5.34 21.66 -4.68 22.32 -4 23 C-1.93400917 23.06754834 -1.93400917 23.06754834 0 22 C1.52269471 19.7774903 1.52269471 19.7774903 2 17 C1.22772827 14.23259665 1.22772827 14.23259665 0 12 C-3.28930404 11.63314303 -3.28930404 11.63314303 -6 13 Z " fill="#020202" transform="translate(91,102)"/>
<path d="M0 0 C2.34375 0.37890625 2.34375 0.37890625 4.84375 1.94140625 C8.37489978 7.67952464 8.92053602 13.79281468 8.34375 20.37890625 C8.01375 21.03890625 7.68375 21.69890625 7.34375 22.37890625 C6.539375 22.19328125 5.735 22.00765625 4.90625 21.81640625 C4.060625 21.67203125 3.215 21.52765625 2.34375 21.37890625 C2.01375 21.70890625 1.68375 22.03890625 1.34375 22.37890625 C-0.8359375 22.58203125 -0.8359375 22.58203125 -3.53125 22.62890625 C-4.41554688 22.6546875 -5.29984375 22.68046875 -6.2109375 22.70703125 C-8.65625 22.37890625 -8.65625 22.37890625 -10.453125 21.08203125 C-12.45978824 18.24143004 -12.01517337 15.7288577 -11.65625 12.37890625 C-10.45703125 10.671875 -10.45703125 10.671875 -8.65625 9.37890625 C-6.17578125 9.0859375 -6.17578125 9.0859375 -3.46875 9.19140625 C-2.56769531 9.21847656 -1.66664062 9.24554688 -0.73828125 9.2734375 C0.29232422 9.32564453 0.29232422 9.32564453 1.34375 9.37890625 C1.01375 8.71890625 0.68375 8.05890625 0.34375 7.37890625 C-3.28625 7.37890625 -6.91625 7.37890625 -10.65625 7.37890625 C-10.98625 6.38890625 -11.31625 5.39890625 -11.65625 4.37890625 C-8.49887649 -0.21363704 -5.18878737 -0.23654766 0 0 Z M-4.65625 13.37890625 C-4.98625 14.69890625 -5.31625 16.01890625 -5.65625 17.37890625 C-3.05042629 18.30955758 -2.01426776 18.52808032 0.59375 17.44140625 C1.17125 17.09078125 1.74875 16.74015625 2.34375 16.37890625 C2.34375 15.71890625 2.34375 15.05890625 2.34375 14.37890625 C0.03375 14.04890625 -2.27625 13.71890625 -4.65625 13.37890625 Z " fill="#020202" transform="translate(45.65625,107.62109375)"/>
<path d="M0 0 C1.31291016 -0.05607422 1.31291016 -0.05607422 2.65234375 -0.11328125 C5.0625 0.3125 5.0625 0.3125 6.88671875 2.109375 C8.66580841 5.44295164 7.97319953 7.73475184 7.0625 11.3125 C5.80078125 13.015625 5.80078125 13.015625 4.0625 14.3125 C1.80078125 14.60546875 1.80078125 14.60546875 -0.625 14.5 C-1.83736328 14.45939453 -1.83736328 14.45939453 -3.07421875 14.41796875 C-3.68910156 14.38316406 -4.30398437 14.34835938 -4.9375 14.3125 C-4.9375 14.9725 -4.9375 15.6325 -4.9375 16.3125 C1.4975 15.8175 1.4975 15.8175 8.0625 15.3125 C8.3925 16.9625 8.7225 18.6125 9.0625 20.3125 C4.37555462 23.43713025 -0.45697347 22.99941236 -5.9375 22.3125 C-9.1875 20.4375 -9.1875 20.4375 -10.9375 17.3125 C-11.82101037 12.44103454 -11.78481074 8.00296848 -9.0625 3.75 C-6.0856735 0.3354049 -4.39609238 0.12265162 0 0 Z M-3.1875 5.1875 C-3.765 5.55875 -4.3425 5.93 -4.9375 6.3125 C-4.9375 7.6325 -4.9375 8.9525 -4.9375 10.3125 C-2.9575 10.3125 -0.9775 10.3125 1.0625 10.3125 C1.7225 8.9925 2.3825 7.6725 3.0625 6.3125 C0.11840637 4.37653854 0.11840637 4.37653854 -3.1875 5.1875 Z " fill="#020202" transform="translate(111.9375,107.6875)"/>
<path d="M0 0 C1.32 0.33 2.64 0.66 4 1 C4.66 6.28 5.32 11.56 6 17 C6.99 16.67 7.98 16.34 9 16 C10.44207941 13.11584117 10.09394887 10.58278472 10.0625 7.375 C10.05347656 6.18648438 10.04445312 4.99796875 10.03515625 3.7734375 C10.02355469 2.85820313 10.01195312 1.94296875 10 1 C11.65 0.67 13.3 0.34 15 0 C17.71486934 3.97610786 17.22440753 8.13901977 17.125 12.75 C17.11597656 13.54277344 17.10695312 14.33554688 17.09765625 15.15234375 C17.07417012 17.10169281 17.03830137 19.05088575 17 21 C12.25 22 12.25 22 10 22 C8.0509375 22.12375 8.0509375 22.12375 6.0625 22.25 C2.27916779 22.24314614 2.27916779 22.24314614 0.0625 20.3125 C-2.42093823 14.90736972 -2.58757691 8.87576908 -2 3 C-1.34 2.01 -0.68 1.02 0 0 Z " fill="#020202" transform="translate(154,108)"/>
<path d="M0 0 C0.78375 0.185625 1.5675 0.37125 2.375 0.5625 C4.97089775 1.25962266 4.97089775 1.25962266 7 0 C10.4375 -0.375 10.4375 -0.375 14 0 C17.03951215 3.77150476 17.38415037 6.80601756 17.3125 11.5625 C17.30863281 12.67753906 17.30476563 13.79257813 17.30078125 14.94140625 C17.0151431 17.8460124 16.5090683 19.54100026 15 22 C13.68 22 12.36 22 11 22 C10.67 16.72 10.34 11.44 10 6 C8.68 6.33 7.36 6.66 6 7 C5.34 11.95 4.68 16.9 4 22 C2.35 22 0.7 22 -1 22 C-4.18773785 15.6245243 -1.71551182 6.54038883 0 0 Z " fill="#010101" transform="translate(59,108)"/>
<path d="M0 0 C0.33 1.65 0.66 3.3 1 5 C-2.153368 5.70074844 -4.72724974 6 -8 6 C-8 6.66 -8 7.32 -8 8 C-6.906875 8.226875 -5.81375 8.45375 -4.6875 8.6875 C-1 10 -1 10 1.0625 12.25 C2.29751786 15.87271906 1.62332945 17.5987383 0 21 C-2.76452033 22.38226016 -5.0461363 22.09525387 -8.125 22.0625 C-9.22070312 22.05347656 -10.31640625 22.04445312 -11.4453125 22.03515625 C-12.70988281 22.01775391 -12.70988281 22.01775391 -14 22 C-14.33 20.35 -14.66 18.7 -15 17 C-11.59437148 16.22157062 -8.49234244 15.90021879 -5 16 C-4.67 15.34 -4.34 14.68 -4 14 C-4.71027344 13.87882812 -5.42054688 13.75765625 -6.15234375 13.6328125 C-7.53099609 13.38144531 -7.53099609 13.38144531 -8.9375 13.125 C-9.85402344 12.96257812 -10.77054688 12.80015625 -11.71484375 12.6328125 C-12.84599609 12.31957031 -12.84599609 12.31957031 -14 12 C-15.42041821 9.15916359 -15.31452272 7.14522722 -15 4 C-11.83680841 -1.7238705 -5.71583426 -0.35477592 0 0 Z " fill="#020202" transform="translate(189,108)"/>
<path d="M0 0 C0 0.33 0 0.66 0 1 C-1.03060547 1.19916016 -1.03060547 1.19916016 -2.08203125 1.40234375 C-3.43361328 1.66724609 -3.43361328 1.66724609 -4.8125 1.9375 C-5.70582031 2.11152344 -6.59914063 2.28554688 -7.51953125 2.46484375 C-10.11397171 2.97741153 -10.11397171 2.97741153 -13 4 C-13.33 4.99 -13.66 5.98 -14 7 C-15.918125 7.12375 -15.918125 7.12375 -17.875 7.25 C-20.05906126 7.48290756 -20.05906126 7.48290756 -22 8 C-23.44123112 9.71502233 -23.44123112 9.71502233 -24 12 C-24.804375 13.175625 -24.804375 13.175625 -25.625 14.375 C-27.32602647 17.62241417 -27.60311997 19.38128019 -27 23 C-24.62499209 25.87640616 -24.62499209 25.87640616 -22 28 C-22.33 27.67 -22.66 27.34 -23 27 C-23 25.68 -23 24.36 -23 23 C-22.21625 22.731875 -21.4325 22.46375 -20.625 22.1875 C-17.71885077 21.15185568 -17.71885077 21.15185568 -16 18 C-15.34 18.33 -14.68 18.66 -14 19 C-15.32 21.31 -16.64 23.62 -18 26 C-17.01 26 -16.02 26 -15 26 C-15 26.66 -15 27.32 -15 28 C-16.32 27.67 -17.64 27.34 -19 27 C-18.67 27.66 -18.34 28.32 -18 29 C-16.02 29 -14.04 29 -12 29 C-11.67 29.99 -11.34 30.98 -11 32 C-11.66 32 -12.32 32 -13 32 C-13 31.34 -13 30.68 -13 30 C-16.41124018 31.41154766 -17.8456223 33.06221223 -20 36 C-20.66 36 -21.32 36 -22 36 C-22.103125 35.21625 -22.20625 34.4325 -22.3125 33.625 C-22.77595022 30.66954819 -22.77595022 30.66954819 -26 29 C-26 28.01 -26 27.02 -26 26 C-27.32 26 -28.64 26 -30 26 C-29.67 26.66 -29.34 27.32 -29 28 C-28.86584528 30.6723621 -28.95681459 33.32250488 -29 36 C-28.34 36 -27.68 36 -27 36 C-26.34 38.31 -25.68 40.62 -25 43 C-24.01 43 -23.02 43 -22 43 C-20.68 45.31 -19.36 47.62 -18 50 C-23.6428259 47.48936904 -27.39831762 42.93492113 -29.875 37.3125 C-32.08342083 30.48887635 -32.11203811 22.92481709 -29.4375 16.25 C-25.75835889 9.16186451 -21.02820424 3.57846385 -13.48828125 0.609375 C-9.01212207 -0.48682725 -4.57051104 -0.30754841 0 0 Z M-25 31 C-24.34 31.33 -23.68 31.66 -23 32 C-23.99 32 -24.98 32 -26 32 C-25.67 31.67 -25.34 31.34 -25 31 Z " fill="#F58E2C" transform="translate(112,28)"/>
<path d="M0 0 C1.65 0.33 3.3 0.66 5 1 C5 2.32 5 3.64 5 5 C6.98 5.66 8.96 6.32 11 7 C10.67 8.32 10.34 9.64 10 11 C8.02 11.33 6.04 11.66 4 12 C4.33 12.66 4.66 13.32 5 14 C5.07092842 16.2072923 5.08415025 18.41667452 5.0625 20.625 C5.05347656 21.81351563 5.04445312 23.00203125 5.03515625 24.2265625 C5.02355469 25.14179687 5.01195312 26.05703125 5 27 C3.34385343 27.38218767 1.67542976 27.71395102 0 28 C-1 27 -1 27 -1.09765625 23.62109375 C-1.09098369 22.22652923 -1.07902532 20.83198257 -1.0625 19.4375 C-1.05798828 18.72658203 -1.05347656 18.01566406 -1.04882812 17.28320312 C-1.03700864 15.52209987 -1.01907263 13.76103964 -1 12 C-2.65 12 -4.3 12 -6 12 C-6.38218767 10.34385343 -6.71395102 8.67542976 -7 7 C-6 6 -6 6 -3.4375 5.9375 C-2.2309375 5.9684375 -2.2309375 5.9684375 -1 6 C-0.67 4.02 -0.34 2.04 0 0 Z " fill="#020202" transform="translate(199,102)"/>
<path d="M0 0 C0.969375 0.185625 1.93875 0.37125 2.9375 0.5625 C3.948125 0.706875 4.95875 0.85125 6 1 C6.33 0.67 6.66 0.34 7 0 C9.4375 -0.25 9.4375 -0.25 12 0 C14.44576827 3.66865241 14.23607254 5.67200343 14 10 C13.67 10.66 13.34 11.32 13 12 C11.35 11.67 9.7 11.34 8 11 C7.67 9.35 7.34 7.7 7 6 C7 10.95 7 15.9 7 21 C5.35 21.33 3.7 21.66 2 22 C-0.19825746 18.41100823 -0.41891419 15.15647543 -0.6875 11 C-0.77386719 9.783125 -0.86023438 8.56625 -0.94921875 7.3125 C-0.99138172 4.56217734 -0.85767493 2.57947349 0 0 Z " fill="#020202" transform="translate(124,108)"/>
<path d="M0 0 C1.32 0 2.64 0 4 0 C6.28289063 6.84867189 5.27831175 14.96928537 4 22 C5.32 22 6.64 22 8 22 C7.125 26.875 7.125 26.875 6 28 C4.00041636 28.04080783 1.99954746 28.04254356 0 28 C-3.44714399 18.99912403 -2.91211481 9.10035878 0 0 Z " fill="#020202" transform="translate(142,102)"/>
<path d="M0 0 C6.14305843 2.80825528 8.61996059 7.97705653 11.3125 13.875 C13.16942042 22.31554737 12.13665459 29.40128372 8 37 C5.04121049 41.38549349 2.28299781 44.6015594 -3 46 C-3 45.01 -3 44.02 -3 43 C-1.515 42.505 -1.515 42.505 0 42 C1.10836423 40.11683841 1.10836423 40.11683841 2 38 C2.66 37.01 3.32 36.02 4 35 C5.27741415 31.0967901 6 28.12760017 6 24 C6.99 23.34 7.98 22.68 9 22 C8.68996789 14.15618759 7.46580329 9.46580329 1.75 3.75 C1.1725 3.1725 0.595 2.595 0 2 C0 1.34 0 0.68 0 0 Z " fill="#EC8D36" transform="translate(124,33)"/>
<path d="M0 0 C0 0.33 0 0.66 0 1 C-1.03060547 1.19916016 -1.03060547 1.19916016 -2.08203125 1.40234375 C-3.43361328 1.66724609 -3.43361328 1.66724609 -4.8125 1.9375 C-5.70582031 2.11152344 -6.59914063 2.28554688 -7.51953125 2.46484375 C-10.11397171 2.97741153 -10.11397171 2.97741153 -13 4 C-13.33 4.99 -13.66 5.98 -14 7 C-15.918125 7.12375 -15.918125 7.12375 -17.875 7.25 C-20.05906126 7.48290756 -20.05906126 7.48290756 -22 8 C-23.44123112 9.71502233 -23.44123112 9.71502233 -24 12 C-25.5 14.5 -25.5 14.5 -27 17 C-27.68096422 18.32608822 -28.35330586 19.65686601 -29 21 C-30.12018942 17.63943174 -30.0193672 17.27254605 -28.5625 14.25 C-25.3469691 8.2291956 -20.50035151 4.46246975 -14.6875 1.0625 C-9.73496771 -0.36450083 -5.11635614 -0.24980401 0 0 Z " fill="#EAA55E" transform="translate(112,28)"/>
<path d="M0 0 C2.93200474 2.85276137 5.64315404 5.65079784 8 9 C7.01 9.33 6.02 9.66 5 10 C4.67 8.68 4.34 7.36 4 6 C2.68 6 1.36 6 0 6 C0.33 6.66 0.66 7.32 1 8 C1.13415472 10.6723621 1.04318541 13.32250488 1 16 C1.66 16 2.32 16 3 16 C3.66 18.31 4.32 20.62 5 23 C5.99 23 6.98 23 8 23 C9.32 25.31 10.64 27.62 12 30 C6.3571741 27.48936904 2.60168238 22.93492113 0.125 17.3125 C-1.63023263 12.0674519 -1.45435894 6.4610449 -1 1 C-0.67 0.67 -0.34 0.34 0 0 Z " fill="#E58E43" transform="translate(82,48)"/>
<path d="M0 0 C1.32 0.66 2.64 1.32 4 2 C3.67 2.66 3.34 3.32 3 4 C4.258125 4.0825 5.51625 4.165 6.8125 4.25 C10.72231986 4.71364236 10.72231986 4.71364236 13 7.0625 C13.33 7.701875 13.66 8.34125 14 9 C10.71303767 9.79953138 9.28976808 10.09658936 6 9 C6 8.34 6 7.68 6 7 C2.62496331 8.1858237 0.35277269 9.27573689 -2 12 C-1.690625 11.2575 -1.38125 10.515 -1.0625 9.75 C0.89016618 4.94606876 0.89016618 4.94606876 0 0 Z " fill="#E99447" transform="translate(115,42)"/>
<path d="M0 0 C6.18939288 2.82943674 8.77807528 8.09065544 11.3125 14.125 C12.04368494 17.18268249 12.14917199 19.86738812 12 23 C11.34 22.67 10.68 22.34 10 22 C9.54362984 20.15979775 9.16007033 18.30131676 8.8125 16.4375 C7.51465733 10.76619791 5.54542069 7.56631347 1.42578125 3.5234375 C0 2 0 2 0 0 Z " fill="#E1A25F" transform="translate(124,33)"/>
<path d="M0 0 C0.33 0 0.66 0 1 0 C1.13277344 0.69867188 1.26554687 1.39734375 1.40234375 2.1171875 C1.57894531 3.02726562 1.75554687 3.93734375 1.9375 4.875 C2.19853516 6.23238281 2.19853516 6.23238281 2.46484375 7.6171875 C2.89963701 9.99956317 2.89963701 9.99956317 4 12 C2.68 12 1.36 12 0 12 C0 13.32 0 14.64 0 16 C-1.65 16.33 -3.3 16.66 -5 17 C-5 16.01 -5 15.02 -5 14 C-3.68 14 -2.36 14 -1 14 C-1 12.35 -1 10.7 -1 9 C-1.66 9 -2.32 9 -3 9 C-2.67 8.01 -2.34 7.02 -2 6 C-1.67 6 -1.34 6 -1 6 C-0.67 4.02 -0.34 2.04 0 0 Z " fill="#F18930" transform="translate(121,64)"/>
<path d="M0 0 C1.32 0 2.64 0 4 0 C4.66 1.65 5.32 3.3 6 5 C5.01 4.67 4.02 4.34 3 4 C2.01 5.485 2.01 5.485 1 7 C-0.32 6.34 -1.64 5.68 -3 5 C-1.125 1.125 -1.125 1.125 0 0 Z " fill="#E89448" transform="translate(95,35)"/>
<path d="M0 0 C0.33 0.99 0.66 1.98 1 3 C0.34 3 -0.32 3 -1 3 C-1.4021875 3.8353125 -1.4021875 3.8353125 -1.8125 4.6875 C-3.1013363 7.19733911 -4.54865343 9.58108906 -6 12 C-6.68096422 13.32608822 -7.35330586 14.65686601 -8 16 C-9 13 -9 13 -8.3984375 11.1328125 C-6.10188274 6.62735775 -3.78488119 3.36433884 0 0 Z " fill="#DEA66E" transform="translate(91,33)"/>
<path d="M0 0 C0.66 0.33 1.32 0.66 2 1 C0.625 3.5 0.625 3.5 -1 6 C-1.66 6 -2.32 6 -3 6 C-3.33 7.65 -3.66 9.3 -4 11 C-4.33 10.34 -4.66 9.68 -5 9 C-5.99 8.67 -6.98 8.34 -8 8 C-7.67 7.01 -7.34 6.02 -7 5 C-5.33927151 4.31867549 -3.672233 3.65257873 -2 3 C-1.34 2.01 -0.68 1.02 0 0 Z " fill="#EA8E3A" transform="translate(96,46)"/>
<path d="M0 0 C2.93200474 2.85276137 5.64315404 5.65079784 8 9 C7.01 9.33 6.02 9.66 5 10 C4.67 8.68 4.34 7.36 4 6 C2.68 6 1.36 6 0 6 C0 4.02 0 2.04 0 0 Z " fill="#EE8C3C" transform="translate(82,48)"/>
<path d="M0 0 C1.32 1.65 2.64 3.3 4 5 C1.39417629 5.93065133 0.35801776 6.14917407 -2.25 5.0625 C-2.8275 4.711875 -3.405 4.36125 -4 4 C-3.67 3.01 -3.34 2.02 -3 1 C-2.01 0.67 -1.02 0.34 0 0 Z " fill="#FD8215" transform="translate(104,75)"/>
<path d="M0 0 C1.48828125 1.14453125 1.48828125 1.14453125 3 3 C3.29296875 5.69921875 3.29296875 5.69921875 3.1875 8.6875 C3.16042969 9.68136719 3.13335937 10.67523438 3.10546875 11.69921875 C3.07066406 12.45847656 3.03585938 13.21773437 3 14 C2.34 13.67 1.68 13.34 1 13 C1.33 10.03 1.66 7.06 2 4 C1.01 4 0.02 4 -1 4 C-0.67 2.68 -0.34 1.36 0 0 Z " fill="#EF892E" transform="translate(93,64)"/>
<path d="M0 0 C1.32 0 2.64 0 4 0 C4 2.31 4 4.62 4 7 C3.01 6.34 2.02 5.68 1 5 C1 4.34 1 3.68 1 3 C0.34 3 -0.32 3 -1 3 C-0.67 2.01 -0.34 1.02 0 0 Z " fill="#F28628" transform="translate(99,31)"/>
<path d="M0 0 C0.33 0 0.66 0 1 0 C1.33 1.65 1.66 3.3 2 5 C3.32 4.67 4.64 4.34 6 4 C6 4.99 6 5.98 6 7 C5.01 7.495 5.01 7.495 4 8 C1.875 7.0625 1.875 7.0625 0 6 C0 4.02 0 2.04 0 0 Z " fill="#EA8F42" transform="translate(103,32)"/>
<path d="M0 0 C0 2.83967231 -0.40267181 5.23735711 -1 8 C-2.32 7.34 -3.64 6.68 -5 6 C-3.35 4.02 -1.7 2.04 0 0 Z " fill="#EE9234" transform="translate(102,72)"/>
<path d="M0 0 C0.66 1.32 1.32 2.64 2 4 C2.66 4 3.32 4 4 4 C3.34 5.65 2.68 7.3 2 9 C0 7 0 7 -0.125 3.375 C-0.08375 2.26125 -0.0425 1.1475 0 0 Z " fill="#EB9B53" transform="translate(129,62)"/>
<path d="M0 0 C1.9375 0.3125 1.9375 0.3125 4 1 C4.33 1.99 4.66 2.98 5 4 C4.401875 3.814375 3.80375 3.62875 3.1875 3.4375 C0.83591238 2.77906313 0.83591238 2.77906313 -2 4 C-1.34 2.68 -0.68 1.36 0 0 Z " fill="#F1983C" transform="translate(96,36)"/>
</svg>
